<?xml version="1.0" encoding="utf-8"?>
<!-- Generator: Adobe Illustrator 24.3.0, SVG Export Plug-In . SVG Version: 6.00 Build 0)  -->
<svg version="1.1" id="Layer_1" xmlns="http://www.w3.org/2000/svg" xmlns:xlink="http://www.w3.org/1999/xlink" x="0px" y="0px"
	 viewBox="0 0 1000 1000" style="enable-background:new 0 0 1000 1000;" xml:space="preserve">
<style type="text/css">
	.st0{fill:#FFFFFF;}
	.st1{fill:#CAE3FF;}
	.st2{fill:#1B1B1B;}
</style>
<g>
	<g>
		<polygon class="st0" points="97,795 97,306.28 244.87,306.28 260.43,213.22 459.69,212.03 475.24,306.28 923,306.28 923,795 		"/>
		<path d="M455.45,217.05l14.17,85.86l1.38,8.37h8.48H918V790H102V311.28h138.63h8.47l1.4-8.35l14.17-84.74L455.45,217.05
			 M463.92,207l-207.73,1.24l-15.56,93.04H92V800h836V301.28H479.49L463.92,207L463.92,207z"/>
	</g>
	<g>
		<rect x="707.78" y="247.98" class="st0" width="108.73" height="59.47"/>
		<path d="M811.51,252.98v49.47h-98.73v-49.47H811.51 M821.51,242.98H702.78v69.47h118.73V242.98L821.51,242.98z"/>
	</g>
	<g>
		<rect x="141.06" y="359.63" class="st0" width="108.73" height="71.88"/>
		<path d="M244.79,364.63v61.88h-98.73v-61.88H244.79 M254.79,354.63H136.06v81.88h118.73V354.63L254.79,354.63z"/>
	</g>
	<g>
		<rect x="761.53" y="364.55" class="st0" width="9.79" height="344.88"/>
		<polygon points="771.33,364.55 761.53,364.55 761.53,709.44 771.33,709.44 771.33,364.55 		"/>
	</g>
	<g>
		<ellipse class="st0" cx="490.04" cy="546.53" rx="167.35" ry="165.35"/>
		<path d="M490.03,386.19c43.39,0,84.17,16.69,114.84,47.01c30.64,30.28,47.51,70.53,47.51,113.34c0,42.81-16.87,83.06-47.51,113.34
			c-30.67,30.31-71.45,47.01-114.84,47.01s-84.17-16.69-114.84-47.01c-30.64-30.28-47.51-70.53-47.51-113.34
			c0-42.81,16.87-83.06,47.51-113.34C405.86,402.88,446.65,386.19,490.03,386.19 M490.03,376.19
			c-95.19,0-172.35,76.27-172.35,170.35c0,94.08,77.17,170.35,172.35,170.35s172.35-76.27,172.35-170.35
			C662.39,452.45,585.22,376.19,490.03,376.19L490.03,376.19z"/>
	</g>
	<g>
		<polygon class="st1" points="103,788 103,309.28 250.1,309.28 265.67,216.19 456.45,215.05 472,309.28 919,309.28 919,788 		"/>
		<path d="M447.97,225.1l12.78,77.44l2.76,16.74h16.97H909V778H113V319.28h128.63h16.93l2.79-16.7l12.78-76.44L447.97,225.1
			 M464.92,205l-207.73,1.24l-15.56,93.04H93V798h836V299.28H480.49L464.92,205L464.92,205z"/>
	</g>
	<g>
		<rect x="712.78" y="252.98" class="st0" width="98.73" height="59.4"/>
		<path d="M801.51,262.98v39.4h-78.73v-39.4H801.51 M821.51,242.98H702.78v79.4h118.73V242.98L821.51,242.98z"/>
	</g>
	<g>
		<rect x="143.56" y="362.13" class="st0" width="103.73" height="66.88"/>
		<path d="M239.79,369.63v51.88h-88.73v-51.88H239.79 M254.79,354.63H136.06v81.88h118.73V354.63L254.79,354.63z"/>
	</g>
	<g>
		<rect x="761.53" y="364.55" class="st0" width="9.79" height="344.88"/>
		<polygon points="771.33,364.55 761.53,364.55 761.53,709.44 771.33,709.44 771.33,364.55 		"/>
	</g>
	<g>
		<ellipse class="st2" cx="490.04" cy="546.53" rx="162.35" ry="160.35"/>
		<path d="M490.03,396.19c40.74,0,79.03,15.67,107.81,44.12c28.72,28.39,44.54,66.11,44.54,106.23s-15.82,77.84-44.54,106.23
			c-28.79,28.45-67.07,44.12-107.81,44.12s-79.03-15.67-107.81-44.12c-28.72-28.39-44.54-66.11-44.54-106.23
			s15.82-77.84,44.54-106.23C411.01,411.86,449.3,396.19,490.03,396.19 M490.03,376.19c-95.19,0-172.35,76.27-172.35,170.35
			s77.17,170.35,172.35,170.35s172.35-76.27,172.35-170.35S585.22,376.19,490.03,376.19L490.03,376.19z"/>
	</g>
	<g>
		<rect x="128" y="800" class="st2" width="822" height="19"/>
		<polygon points="960,790 118,790 118,829 960,829 960,790 		"/>
	</g>
	<g>
		<rect x="938" y="332" class="st2" width="12" height="448"/>
		<polygon points="960,322 928,322 928,790 960,790 960,322 		"/>
	</g>
</g>
</svg>
