<?xml version="1.0" encoding="utf-8"?>
<!-- Generator: Adobe Illustrator 24.3.0, SVG Export Plug-In . SVG Version: 6.00 Build 0)  -->
<svg version="1.1" id="Layer_1" xmlns="http://www.w3.org/2000/svg" xmlns:xlink="http://www.w3.org/1999/xlink" x="0px" y="0px"
	 viewBox="0 0 1024 1024" style="enable-background:new 0 0 1024 1024;" xml:space="preserve">
<style type="text/css">
	.st0{fill:#1B1B1B;}
	.st1{fill:#FFFFFF;}
</style>
<g>
	<path class="st0" d="M180.07,1023.5C81.05,1023.5,0.5,942.95,0.5,843.93V180.07C0.5,81.05,81.05,0.5,180.07,0.5h663.87
		c99.01,0,179.57,80.55,179.57,179.57v663.87c0,99.01-80.55,179.57-179.57,179.57H180.07z"/>
	<path d="M843.93,1c24.17,0,47.63,4.73,69.7,14.07c21.32,9.02,40.47,21.93,56.92,38.38c16.45,16.45,29.36,35.6,38.38,56.92
		c9.34,22.08,14.07,45.53,14.07,69.7v663.87c0,24.17-4.73,47.63-14.07,69.7c-9.02,21.32-21.93,40.47-38.38,56.92
		c-16.45,16.45-35.6,29.36-56.92,38.38c-22.08,9.34-45.53,14.07-69.7,14.07H180.07c-24.17,0-47.63-4.73-69.7-14.07
		c-21.32-9.02-40.47-21.93-56.92-38.38c-16.45-16.45-29.36-35.6-38.38-56.92C5.73,891.56,1,868.11,1,843.93V180.07
		c0-24.17,4.73-47.63,14.07-69.7C24.09,89.04,37,69.89,53.45,53.45C69.89,37,89.04,24.09,110.37,15.07
		C132.44,5.73,155.89,1,180.07,1H843.93 M843.93,0H180.07C80.62,0,0,80.62,0,180.07v663.87C0,943.38,80.62,1024,180.07,1024h663.87
		c99.45,0,180.07-80.62,180.07-180.07V180.07C1024,80.62,943.38,0,843.93,0L843.93,0z"/>
</g>
<g>
	<circle class="st1" cx="228.5" cy="232.5" r="139.5"/>
	<path class="st1" d="M228.5,102c34.86,0,67.63,13.57,92.28,38.22C345.43,164.87,359,197.64,359,232.5s-13.57,67.63-38.22,92.28
		C296.13,349.43,263.36,363,228.5,363s-67.63-13.57-92.28-38.22C111.57,300.13,98,267.36,98,232.5s13.57-67.63,38.22-92.28
		C160.87,115.57,193.64,102,228.5,102 M228.5,84C146.49,84,80,150.49,80,232.5S146.49,381,228.5,381S377,314.51,377,232.5
		S310.51,84,228.5,84L228.5,84z"/>
</g>
<g>
	<circle class="st1" cx="787.5" cy="817.5" r="139.5"/>
	<path class="st1" d="M787.5,687c34.86,0,67.63,13.57,92.28,38.22C904.43,749.87,918,782.64,918,817.5s-13.57,67.63-38.22,92.28
		C855.13,934.43,822.36,948,787.5,948s-67.63-13.57-92.28-38.22C670.57,885.13,657,852.36,657,817.5s13.57-67.63,38.22-92.28
		C719.87,700.57,752.64,687,787.5,687 M787.5,669C705.49,669,639,735.49,639,817.5S705.49,966,787.5,966S936,899.51,936,817.5
		S869.51,669,787.5,669L787.5,669z"/>
</g>
<g>
	<circle class="st1" cx="490.5" cy="529.5" r="139.5"/>
	<path class="st1" d="M490.5,399c34.86,0,67.63,13.57,92.28,38.22C607.43,461.87,621,494.64,621,529.5s-13.57,67.63-38.22,92.28
		C558.13,646.43,525.36,660,490.5,660s-67.63-13.57-92.28-38.22C373.57,597.13,360,564.36,360,529.5s13.57-67.63,38.22-92.28
		C422.87,412.57,455.64,399,490.5,399 M490.5,381C408.49,381,342,447.49,342,529.5S408.49,678,490.5,678
		c82.01,0,148.5-66.49,148.5-148.5S572.51,381,490.5,381L490.5,381z"/>
</g>
</svg>
